<?xml version="1.0" encoding="UTF-8"?>
<svg xmlns="http://www.w3.org/2000/svg" xmlns:xlink="http://www.w3.org/1999/xlink" width="2501" height="2501" viewBox="0 0 2501 2501">
<path fill-rule="evenodd" fill="rgb(19.993591%, 19.993591%, 19.993591%)" fill-opacity="1" d="M 952.539062 1799.125 L 625.359375 1799.125 C 590.460938 1799.125 561.90625 1770.570312 561.90625 1735.675781 L 561.90625 898.488281 C 561.90625 863.601562 590.460938 835.039062 625.359375 835.039062 L 1876.320312 835.039062 C 1911.21875 835.039062 1939.769531 863.601562 1939.769531 898.488281 L 1939.769531 1735.675781 C 1939.769531 1770.570312 1911.21875 1799.125 1876.320312 1799.125 L 952.539062 1799.125 "/>
<path fill-rule="evenodd" fill="rgb(19.993591%, 19.993591%, 19.993591%)" fill-opacity="1" d="M 1939.769531 1719.917969 L 1939.769531 844.53125 C 1939.769531 839.300781 1935.511719 835.039062 1930.289062 835.039062 L 571.390625 835.039062 C 566.164062 835.039062 561.90625 839.300781 561.90625 844.53125 L 561.90625 1719.917969 C 561.90625 1725.140625 566.164062 1729.402344 571.390625 1729.402344 L 1930.289062 1729.402344 C 1935.511719 1729.402344 1939.769531 1725.140625 1939.769531 1719.917969 "/>
<path fill-rule="evenodd" fill="rgb(100%, 100%, 100%)" fill-opacity="1" d="M 1916.101562 1707.195312 L 1916.101562 868.328125 C 1916.101562 863.03125 1911.839844 858.71875 1906.621094 858.71875 L 595.0625 858.71875 C 589.839844 858.71875 585.582031 863.03125 585.582031 868.328125 L 585.582031 1707.195312 C 585.582031 1712.488281 589.839844 1716.804688 595.0625 1716.804688 L 1906.621094 1716.804688 C 1911.839844 1716.804688 1916.101562 1712.488281 1916.101562 1707.195312 "/>
<path fill-rule="evenodd" fill="rgb(19.993591%, 19.993591%, 19.993591%)" fill-opacity="1" d="M 1235.75 813.96875 C 1243.53125 816.25 1250.25 820.789062 1255.039062 827.53125 C 1261.808594 837.058594 1262.679688 847.488281 1262.679688 858.71875 L 1262.679688 1708.808594 C 1262.679688 1720.230469 1256.980469 1730.628906 1247.339844 1736.765625 C 1237.738281 1742.890625 1225.839844 1743.675781 1215.519531 1738.859375 C 1135.21875 1701.445312 1046.179688 1676.609375 959.355469 1659.992188 C 853.179688 1639.671875 743.976562 1630.625 635.929688 1630.625 C 635.417969 1630.625 634.910156 1630.628906 634.402344 1630.628906 C 625.5 1630.648438 617.210938 1627.234375 610.90625 1620.945312 C 604.601562 1614.660156 601.164062 1606.375 601.164062 1597.46875 L 601.164062 734.351562 C 601.164062 716.101562 615.980469 701.25 634.234375 701.199219 C 634.796875 701.199219 635.363281 701.191406 635.929688 701.191406 C 747.476562 701.191406 860.195312 710.609375 969.785156 731.699219 C 1060.019531 749.058594 1152.261719 775.019531 1235.75 813.96875 "/>
<path fill-rule="evenodd" fill="rgb(100%, 100%, 100%)" fill-opacity="1" d="M 624.839844 847.398438 L 624.839844 1597.46875 C 624.839844 1600.085938 625.773438 1602.335938 627.625 1604.1875 C 629.480469 1606.03125 631.730469 1606.960938 634.347656 1606.953125 C 634.875 1606.953125 635.402344 1606.949219 635.929688 1606.949219 C 869.726562 1606.949219 1079.941406 1649.566406 1225.519531 1717.402344 C 1228.539062 1718.8125 1231.808594 1718.597656 1234.621094 1716.804688 C 1237.429688 1715.011719 1239 1712.144531 1239 1708.808594 L 1239 858.71875 C 1239 848.851562 1238.75 838.621094 1227.710938 836.339844 C 1082.050781 767.910156 870.898438 724.871094 635.929688 724.871094 C 635.382812 724.871094 634.839844 724.871094 634.296875 724.871094 C 629.082031 724.890625 624.839844 729.140625 624.839844 734.351562 L 624.839844 847.398438 "/>
<path fill-rule="evenodd" fill="rgb(19.993591%, 19.993591%, 19.993591%)" fill-opacity="1" d="M 1265.929688 813.96875 C 1258.148438 816.25 1251.429688 820.789062 1246.640625 827.53125 C 1239.871094 837.058594 1239 847.488281 1239 858.71875 L 1239 1708.808594 C 1239 1720.230469 1244.699219 1730.628906 1254.339844 1736.765625 C 1263.941406 1742.890625 1275.839844 1743.675781 1286.160156 1738.859375 C 1366.460938 1701.445312 1455.5 1676.609375 1542.328125 1659.992188 C 1648.5 1639.671875 1757.710938 1630.625 1865.75 1630.625 C 1866.261719 1630.625 1866.769531 1630.628906 1867.28125 1630.628906 C 1876.179688 1630.648438 1884.46875 1627.234375 1890.769531 1620.945312 C 1897.078125 1614.660156 1900.519531 1606.375 1900.519531 1597.46875 L 1900.519531 734.351562 C 1900.519531 716.101562 1885.699219 701.25 1867.449219 701.199219 C 1866.878906 701.199219 1866.320312 701.191406 1865.75 701.191406 C 1754.210938 701.191406 1641.488281 710.609375 1531.898438 731.699219 C 1441.660156 749.058594 1349.421875 775.019531 1265.929688 813.96875 "/>
<path fill-rule="evenodd" fill="rgb(100%, 100%, 100%)" fill-opacity="1" d="M 1876.839844 847.398438 L 1876.839844 1597.46875 C 1876.839844 1600.085938 1875.910156 1602.335938 1874.058594 1604.1875 C 1872.199219 1606.03125 1869.949219 1606.960938 1867.328125 1606.953125 C 1866.808594 1606.953125 1866.28125 1606.949219 1865.75 1606.949219 C 1631.960938 1606.949219 1421.738281 1649.566406 1276.160156 1717.402344 C 1273.140625 1718.8125 1269.878906 1718.597656 1267.058594 1716.804688 C 1264.25 1715.011719 1262.679688 1712.144531 1262.679688 1708.808594 L 1262.679688 858.71875 C 1262.679688 848.851562 1262.941406 838.621094 1273.980469 836.339844 C 1419.628906 767.910156 1630.78125 724.871094 1865.75 724.871094 C 1866.300781 724.871094 1866.839844 724.871094 1867.378906 724.871094 C 1872.601562 724.890625 1876.839844 729.140625 1876.839844 734.351562 L 1876.839844 847.398438 "/>
</svg>
